<?xml version="1.0" encoding="utf-8"?>
<!-- Generator: Adobe Illustrator 16.2.0, SVG Export Plug-In . SVG Version: 6.00 Build 0)  -->
<!DOCTYPE svg PUBLIC "-//W3C//DTD SVG 1.1//EN" "http://www.w3.org/Graphics/SVG/1.1/DTD/svg11.dtd">
<svg version="1.1" id="Слой_1" xmlns="http://www.w3.org/2000/svg" xmlns:xlink="http://www.w3.org/1999/xlink" x="0px" y="0px"
	 width="260px" height="260px" viewBox="0 0 260 260" enable-background="new 0 0 260 260" xml:space="preserve">
<g id="user_x5F_avatar_5_">
	<g>
		<path fill="none" stroke="#595A5C" stroke-miterlimit="10" d="M218.27,228.033c1.143-10.258-6.801-55.729-11.927-64.094
			c-10.755-17.562-46.648-1.727-47.856-36.751"/>
		<path fill="none" stroke="#595A5C" stroke-miterlimit="10" d="M51.111,228.033c-1.143-10.258,6.8-55.729,11.926-64.094
			c10.755-17.562,46.648-1.727,47.856-36.751"/>
		<path fill="none" stroke="#595A5C" stroke-miterlimit="10" d="M137.151,159.8c8.19-2.005,24.225-8.331,24.958-18.118
			c1.147,0.743,4.831,8.455,16.909,10.87c-9.662,14.492-30.193,19.324-30.193,19.324L137.151,159.8z"/>
		<path fill="none" stroke="#595A5C" stroke-miterlimit="10" d="M133.125,159.8c-8.19-2.005-24.225-8.331-24.959-18.118
			c-1.146,0.743-4.831,8.455-16.908,10.87c9.662,14.492,30.193,19.324,30.193,19.324L133.125,159.8z"/>
		<path fill="none" stroke="#595A5C" stroke-miterlimit="10" d="M134.333,159.798c0.108,2.465,2.138,7.151,2.514,9.646
			c0.826,5.475-0.536,10.755-0.914,16.21c-2.808,40.569,8.168,60.018,1.62,68.349"/>
		<path fill="none" stroke="#595A5C" stroke-miterlimit="10" d="M81.969,202.53c-2.499,2.577-5.545,31.578-5.606,40.199"/>
		<path fill="none" stroke="#595A5C" stroke-miterlimit="10" d="M187.503,202.53c2.499,2.577,5.545,31.578,5.605,40.199"/>
		<g>
			<g>
				<path fill="#595A5C" d="M127.086,186.867c0.645,0,0.645-1,0-1S126.441,186.867,127.086,186.867L127.086,186.867z"/>
			</g>
		</g>
		<g>
			<g>
				<path fill="#595A5C" d="M128.294,214.646c0.645,0,0.645-1,0-1S127.649,214.646,128.294,214.646L128.294,214.646z"/>
			</g>
		</g>
		<g>
			<g>
				<path fill="#595A5C" d="M131.917,243.63c0.645,0,0.645-1,0-1S131.272,243.63,131.917,243.63L131.917,243.63z"/>
			</g>
		</g>
		<path fill="none" stroke="#595A5C" stroke-miterlimit="10" d="M172.979,196.029c-4.937,0.179-15.728,2.597-20.871,2.88
			c-0.35,6.841-0.868,20.067,11.209,18.859C178.309,216.269,172.979,196.029,172.979,196.029z"/>
		<g id="Camera_14_">
			<g>
				<path fill="#595A5C" d="M89.054,53.127c2.228,0,4.041,1.813,4.041,4.041s-1.813,4.041-4.041,4.041s-4.041-1.813-4.041-4.041
					S86.826,53.127,89.054,53.127 M89.054,52.127c-2.787,0-5.041,2.256-5.041,5.041c0,2.785,2.253,5.041,5.041,5.041
					s5.041-2.256,5.041-5.041C94.094,54.383,91.841,52.127,89.054,52.127L89.054,52.127z"/>
			</g>
			<polygon fill="none" stroke="#595A5C" stroke-miterlimit="10" points="189.558,40.5 221.5,40.5 221.5,125.5 51.5,125.5 
				51.5,40.5 81.177,40.5 101.341,9.5 169.391,9.5 			"/>
			<g>
				<g>
					<path fill="#595A5C" d="M136.627,38.161c20.295,0,36.807,16.511,36.807,36.806c0,20.296-16.512,36.808-36.807,36.808
						c-20.296,0-36.808-16.512-36.808-36.808C99.819,54.672,116.331,38.161,136.627,38.161 M136.627,37.161
						c-20.883,0-37.808,16.925-37.808,37.806c0,20.878,16.924,37.808,37.808,37.808c20.884,0,37.807-16.93,37.807-37.808
						C174.434,54.086,157.511,37.161,136.627,37.161L136.627,37.161z"/>
				</g>
			</g>
			<g>
				<g>
					<path fill="#595A5C" d="M136.627,48.513c14.587,0,26.455,11.868,26.455,26.455c0,14.588-11.868,26.457-26.455,26.457
						c-14.587,0-26.455-11.868-26.455-26.457C110.172,60.38,122.04,48.513,136.627,48.513 M136.627,47.513
						c-15.163,0-27.455,12.29-27.455,27.455c0,15.164,12.292,27.457,27.455,27.457c15.162,0,27.455-12.293,27.455-27.457
						C164.082,59.803,151.789,47.513,136.627,47.513L136.627,47.513z"/>
				</g>
			</g>
		</g>
	</g>
</g>
</svg>
